<svg width="360" height="40" viewBox="0 0 360 40" fill="none" xmlns="http://www.w3.org/2000/svg">
<g clip-path="url(#clip0_143_2785)">
<path d="M131.421 15.0469H132.952L135.83 22.7236L138.701 15.0469H140.232L136.431 25H135.215L131.421 15.0469ZM130.723 15.0469H132.179L132.432 21.6914V25H130.723V15.0469ZM139.473 15.0469H140.936V25H139.221V21.6914L139.473 15.0469ZM143.832 15.0469L146.143 19.7979L148.453 15.0469H150.354L147.004 21.3359V25H145.275V21.3359L141.925 15.0469H143.832ZM161.361 23.6396V25H156.364V23.6396H161.361ZM156.843 15.0469V25H155.127V15.0469H156.843ZM169.979 19.9141V23.7148C169.838 23.9017 169.617 24.1068 169.316 24.3301C169.02 24.5488 168.625 24.738 168.133 24.8975C167.641 25.057 167.028 25.1367 166.294 25.1367C165.67 25.1367 165.098 25.0319 164.579 24.8223C164.059 24.6081 163.61 24.2959 163.232 23.8857C162.858 23.4756 162.569 22.9766 162.364 22.3887C162.159 21.7962 162.056 21.1217 162.056 20.3652V19.6748C162.056 18.9229 162.149 18.2529 162.336 17.665C162.528 17.0726 162.801 16.5713 163.157 16.1611C163.512 15.751 163.94 15.4411 164.442 15.2314C164.948 15.0173 165.52 14.9102 166.158 14.9102C166.973 14.9102 167.648 15.0469 168.181 15.3203C168.719 15.5892 169.134 15.9629 169.425 16.4414C169.717 16.9199 169.901 17.4668 169.979 18.082H168.297C168.243 17.7357 168.135 17.4258 167.976 17.1523C167.821 16.8789 167.598 16.6647 167.306 16.5098C167.019 16.3503 166.645 16.2705 166.185 16.2705C165.788 16.2705 165.44 16.3457 165.139 16.4961C164.838 16.6465 164.588 16.8675 164.387 17.1592C164.191 17.4508 164.043 17.8063 163.943 18.2256C163.843 18.6449 163.792 19.1234 163.792 19.6611V20.3652C163.792 20.9121 163.849 21.3975 163.963 21.8213C164.082 22.2451 164.25 22.6029 164.469 22.8945C164.692 23.1862 164.964 23.4072 165.283 23.5576C165.602 23.7035 165.962 23.7764 166.363 23.7764C166.755 23.7764 167.076 23.7445 167.327 23.6807C167.577 23.6123 167.775 23.5326 167.921 23.4414C168.072 23.3457 168.188 23.2546 168.27 23.168V21.1924H166.199V19.9141H169.979ZM177.398 15.0469V25H175.682V15.0469H177.398ZM182.522 25H180.396L180.41 23.6396H182.522C183.137 23.6396 183.652 23.5052 184.067 23.2363C184.486 22.9674 184.801 22.5824 185.01 22.0811C185.225 21.5798 185.332 20.9827 185.332 20.29V19.75C185.332 19.2122 185.27 18.736 185.147 18.3213C185.029 17.9066 184.851 17.5579 184.614 17.2754C184.381 16.9928 184.094 16.7786 183.753 16.6328C183.415 16.487 183.026 16.4141 182.584 16.4141H180.355V15.0469H182.584C183.244 15.0469 183.848 15.1585 184.395 15.3818C184.942 15.6006 185.414 15.9173 185.81 16.332C186.211 16.7467 186.519 17.2435 186.733 17.8223C186.947 18.401 187.054 19.0482 187.054 19.7637V20.29C187.054 21.0055 186.947 21.6527 186.733 22.2314C186.519 22.8102 186.211 23.307 185.81 23.7217C185.409 24.1318 184.931 24.4486 184.375 24.6719C183.823 24.8906 183.206 25 182.522 25ZM181.346 15.0469V25H179.63V15.0469H181.346ZM192.152 23.572H203.618V24.538H192.152V23.572ZM197.276 20.856H198.438V23.978H197.276V20.856ZM193.538 14.374H202.204V18.21H194.728V20.744H193.58V17.272H201.056V15.312H193.538V14.374ZM193.58 20.254H202.498V21.206H193.58V20.254ZM206.362 14.78H214.51V15.718H206.362V14.78ZM205.13 23.278H216.568V24.244H205.13V23.278ZM213.894 14.78H215.028V16.04C215.028 17.664 215.028 19.47 214.552 22.2L213.39 22.088C213.894 19.498 213.894 17.608 213.894 16.04V14.78ZM227.307 13.45H228.483V22.69H227.307V13.45ZM220.349 24.86H228.861V25.812H220.349V24.86ZM220.349 21.738H221.497V25.182H220.349V21.738ZM221.693 14.318C223.583 14.318 224.983 15.606 224.983 17.44C224.983 19.26 223.583 20.562 221.693 20.562C219.803 20.562 218.389 19.26 218.389 17.44C218.389 15.606 219.803 14.318 221.693 14.318ZM221.693 15.326C220.461 15.326 219.523 16.194 219.523 17.44C219.523 18.672 220.461 19.54 221.693 19.54C222.925 19.54 223.863 18.672 223.863 17.44C223.863 16.194 222.925 15.326 221.693 15.326Z" fill="black"/>
</g>
<rect x="0.5" y="0.5" width="359" height="39" rx="19.5" stroke="url(#paint0_linear_143_2785)"/>
<defs>
<linearGradient id="paint0_linear_143_2785" x1="180" y1="0" x2="180" y2="40" gradientUnits="userSpaceOnUse">
<stop stop-color="#3C393B"/>
<stop offset="1" stop-color="#D53069"/>
</linearGradient>
<clipPath id="clip0_143_2785">
<rect width="360" height="40" rx="20" fill="white"/>
</clipPath>
</defs>
</svg>
