<svg width="32" height="29" viewBox="0 0 32 29" fill="none" xmlns="http://www.w3.org/2000/svg">
<path d="M11.0054 13.0086C10.9183 12.8919 10.7933 12.7506 10.6185 12.6788C10.5184 12.6377 10.3925 12.6158 10.257 12.6473C10.1233 12.6782 10.0265 12.7502 9.96352 12.8171C9.8526 12.9349 9.81266 13.0719 9.79883 13.1238C9.78949 13.1588 9.78364 13.1895 9.78003 13.2117C9.77818 13.223 9.7768 13.2329 9.77579 13.2409L9.77451 13.2516L9.77404 13.2559L9.77385 13.2578L9.77376 13.2587L9.77372 13.2591C9.7737 13.2593 9.77368 13.2595 10.2713 13.3082L9.77368 13.2595L9.76656 13.3322L9.78055 13.4039C9.87598 13.8931 9.96726 14.2765 10.0506 14.6265C10.3037 15.6895 10.4835 16.4447 10.4835 18.9212V27.5284H0.5V0.5H10.7569L11.0395 0.926988L12.1782 2.64673C13.1218 4.0717 14.3831 5.97593 15.6537 7.89288C18.187 11.7149 20.7773 15.6178 20.9356 15.8338L20.9363 15.8348C21.0236 15.9534 21.149 16.0974 21.3246 16.1708C21.4254 16.213 21.5534 16.2359 21.6916 16.2032C21.8275 16.1711 21.9248 16.0966 21.9871 16.0287C22.0967 15.9094 22.1353 15.7713 22.1486 15.7196C22.1576 15.6844 22.1632 15.6536 22.1667 15.6313C22.1684 15.6199 22.1697 15.61 22.1707 15.6021L22.1719 15.5914L22.1723 15.5871L22.1725 15.5853L22.1726 15.5844L22.1726 15.584C22.1726 15.5838 22.1726 15.5836 21.6747 15.5383L22.1726 15.5836L22.1791 15.5121L22.1653 15.4417C22.0553 14.8834 21.9446 14.4022 21.8395 13.9455C21.4956 12.4511 21.2119 11.2185 21.2119 8.4016V0.5H31.1954V27.5284H20.9758L20.7026 27.1296L19.5872 25.5014C18.6629 24.1523 17.4273 22.3493 16.1824 20.534C13.7023 16.9173 11.1669 13.2243 11.0054 13.0086ZM11.0054 13.0086C11.0056 13.0088 11.0057 13.009 11.0059 13.0092L10.7233 13.22M11.0054 13.0086C11.0053 13.0084 11.0051 13.0082 11.005 13.008L10.7223 13.2202M10.7233 13.22L10.6051 13.3082C10.5895 13.2872 10.5746 13.2685 10.5603 13.2518L10.7223 13.2202M10.7233 13.22L10.7223 13.2202M10.7233 13.22L10.7223 13.2202" fill="white" stroke="white"/>
</svg>
